<svg width="43" height="43" viewBox="0 0 43 43" fill="none" xmlns="http://www.w3.org/2000/svg">
<path d="M21.5 0C9.59231 0 0 9.59231 0 21.5C0 33.4077 9.59231 43 21.5 43C33.4077 43 43 33.4077 43 21.5C43 19.1879 42.6891 16.8808 41.8622 14.7292L39.1763 17.3654C39.5071 18.6885 39.694 20.0148 39.694 21.5C39.694 31.5918 31.5934 39.6923 21.5017 39.6923C11.4099 39.6923 3.30769 31.5918 3.30769 21.5C3.30769 11.4082 11.4082 3.30769 21.5 3.30769C26.4615 3.30769 30.9187 5.28404 34.0593 8.42469L36.3846 6.09938C32.5808 2.29223 27.2885 0 21.5 0ZM40.157 7.08012L21.5 25.7388L14.4199 18.657L12.0417 21.0353L20.3109 29.3045L21.5 30.4407L22.6891 29.3045L42.5353 9.45835L40.157 7.08012Z" fill="#07469C"/>
</svg>
